<svg width="44" height="44" viewBox="0 0 44 44" fill="none" xmlns="http://www.w3.org/2000/svg">
<rect width="44" height="44" rx="8" fill="#5ABD37"/>
<path d="M22.7071 31.1922C22.5261 31.3732 22.2762 31.485 22 31.485C21.4475 31.485 21.0001 31.0376 21.0001 30.4851V13.5146C21.0001 12.9621 21.4475 12.5147 22 12.5147C22.5524 12.5147 22.9999 12.9621 22.9999 13.5146L22.9999 30.4851C22.9999 30.7613 22.888 31.0113 22.7071 31.1922Z" fill="white"/>
<path d="M31.1923 22.707C31.0114 22.8879 30.7615 22.9997 30.4852 22.9997L13.5147 22.9997C12.9622 22.9997 12.5148 22.5523 12.5148 21.9998C12.5148 21.4474 12.9623 20.9999 13.5147 21L30.4852 21C31.0377 21 31.4851 21.4474 31.4851 21.9998C31.4851 22.2761 31.3733 22.526 31.1923 22.707Z" fill="white"/>
</svg>
