<svg width="32" height="32" viewBox="0 0 32 32" fill="none" xmlns="http://www.w3.org/2000/svg">
<path d="M0 12.8C0 8.31958 0 6.07937 0.871948 4.36808C1.63893 2.86278 2.86278 1.63893 4.36808 0.871948C6.07937 0 8.31958 0 12.8 0H19.2C23.6804 0 25.9206 0 27.6319 0.871948C29.1372 1.63893 30.3611 2.86278 31.1281 4.36808C32 6.07937 32 8.31958 32 12.8V19.2C32 23.6804 32 25.9206 31.1281 27.6319C30.3611 29.1372 29.1372 30.3611 27.6319 31.1281C25.9206 32 23.6804 32 19.2 32H12.8C8.31958 32 6.07937 32 4.36808 31.1281C2.86278 30.3611 1.63893 29.1372 0.871948 27.6319C0 25.9206 0 23.6804 0 19.2V12.8Z" fill="#F4F4F4"/>
<path fill-rule="evenodd" clip-rule="evenodd" d="M10.4107 10.4108C10.7361 10.0853 11.2638 10.0853 11.5892 10.4108L16 14.8215L20.4107 10.4108C20.7361 10.0853 21.2638 10.0853 21.5892 10.4108C21.9147 10.7362 21.9147 11.2638 21.5892 11.5893L17.1785 16L21.5892 20.4108C21.9147 20.7362 21.9147 21.2638 21.5892 21.5893C21.2638 21.9147 20.7361 21.9147 20.4107 21.5893L16 17.1785L11.5892 21.5893C11.2638 21.9147 10.7361 21.9147 10.4107 21.5893C10.0853 21.2638 10.0853 20.7362 10.4107 20.4108L14.8214 16L10.4107 11.5893C10.0853 11.2638 10.0853 10.7362 10.4107 10.4108Z" fill="#333333"/>
</svg>
