<svg width="20" height="20" viewBox="0 0 20 20" fill="none" xmlns="http://www.w3.org/2000/svg">
<path d="M5.41671 15.4167C5.20349 15.4167 4.99028 15.3353 4.82752 15.1725C4.50199 14.847 4.50199 14.3197 4.82752 13.9941L13.9942 4.82747C14.3197 4.50195 14.8471 4.50195 15.1726 4.82747C15.4981 5.153 15.4981 5.68034 15.1726 6.00586L6.0059 15.1725C5.84314 15.3353 5.62993 15.4167 5.41671 15.4167Z" fill="#FF6600"/>
<path d="M14.5834 15.4167C14.3702 15.4167 14.1569 15.3353 13.9942 15.1725L4.82752 6.00585C4.50199 5.68033 4.50199 5.15299 4.82752 4.82747C5.15304 4.50195 5.68039 4.50194 6.0059 4.82747L15.1726 13.9941C15.4981 14.3197 15.4981 14.847 15.1726 15.1725C15.0098 15.3353 14.7966 15.4167 14.5834 15.4167Z" fill="#FF6600"/>
</svg>
